<svg width="1024" height="1024" viewBox="0 0 1024 1024" fill="none" xmlns="http://www.w3.org/2000/svg">
<path fill-rule="evenodd" clip-rule="evenodd" d="M390.305 703.897C390.336 703.997 390.336 703.997 390.305 703.897Z" fill="white" fill-opacity="0.9"/>
<path fill-rule="evenodd" clip-rule="evenodd" d="M367.014 810.866C366.204 814.855 363.248 818.146 359.252 818.923C349.193 820.878 342.166 821.119 336.495 820.04C331.858 819.157 329.652 814.173 330.795 809.594C361.229 687.645 383.667 641.584 411.836 602.5C426.475 582.19 459.647 558.49 489.336 544.84C582.559 501.981 606.836 484.5 639.836 459C575.265 501.825 484.107 517.006 431.179 570.324C430.768 570.738 430.091 570.195 430.369 569.682C475.251 486.688 508.881 461.549 567.296 416.104C585.551 401.902 605.888 384.803 630.836 364C505.367 441.437 436.67 488.277 365.455 610.998C365.204 611.43 364.53 611.276 364.507 610.777C362.717 572.111 358.52 548.09 353.678 518.111C353.05 514.222 352.145 510.222 351.336 506C351.595 515.415 351.62 524.392 352.165 532.964C356.856 606.8 358.896 654.876 328.48 724.104C328.317 724.475 327.793 724.509 327.586 724.16C293.951 667.445 280.728 624.795 275.836 575C265.235 467.085 357.083 371.832 456.836 332.5C479.288 323.647 506.294 313.512 592.336 286C642.635 269.917 673.47 243.437 704.537 208.837C706.522 206.625 710.147 207.235 711.233 210.002C798.878 433.391 741.624 722.582 462.336 760.5C389.9 770.335 373.685 778.023 367.014 810.866ZM390.305 703.897C408.438 690.245 420.581 680.328 445.836 664.997C470.478 650.039 496.852 639.512 540.336 619.5C495.433 646.564 452.838 669.375 382.336 710.5C385.141 708.188 387.787 705.99 390.305 703.897Z" fill="white" fill-opacity="0.9"/>
</svg>
